# xmcd
#
# Track frame offsets:
#	150
#	15632
#	32704
#	51195
#	66179
#	83752
#	100767
#	118241
#	138550
#	154452
#	172685
#	191203
#	206823
#	219743
#	235366
#
# Disc length: 3329 seconds
#
# Revision: 1
# Processed by: cddbd v1.5.2PL0 Copyright (c) Steve Scherf et al.
# Submitted via: audiograbber 1.83.01
#
DISCID=db0cff0f
DTITLE=Chartbuster - 60392
DYEAR=1900
DGENRE=
TTITLE0=Chesney, Kenny - Ten With A Two
TTITLE1=Keith, Toby - God Love Her
TTITLE2=O'Neal, Jamie - Like A Woman
TTITLE3=Carolina Rain - Weight Of The World
TTITLE4=Rucker, Darius - It Won't Be Like This For Long
TTITLE5=Shawanda, Crystal - My Roots Are Showing
TTITLE6=Ingram, Jack - That's A Man
TTITLE7=Carroll, Jason Michael - Where I'm From
TTITLE8=Newfield, Heidi - Cry Cry (Til The Sun Shines)
TTITLE9=Lawrence, Tracy - You Can't Hide Redneck
TTITLE10=Montgomery, John Michael - Forever
TTITLE11=Buxton, Sarah - Space
TTITLE12=Moore, Justin - Back That Thing Up
TTITLE13=Stillwell, Matt - Shine
TTITLE14=Joey and Rory - Cheater Cheater
EXTD=
EXTT0=
EXTT1=
EXTT2=
EXTT3=
EXTT4=
EXTT5=
EXTT6=
EXTT7=
EXTT8=
EXTT9=
EXTT10=
EXTT11=
EXTT12=
EXTT13=
EXTT14=
PLAYORDER=
